<svg xmlns="http://www.w3.org/2000/svg" xml:space="preserve" width="2000" height="1500" data-id="lg_5JOuZrpLug2atoSDoh" data-version="1" viewBox="0 0 2000 1500"><path fill="#fff" stroke="transparent" d="M0 0h2000v1500H0z"/><g data-padding="20"><g transform="translate(-856.25 -649.547)scale(1.828)"><rect width="560" height="206.79" x="335.133" y="226.37" fill="none" rx="0" ry="0" transform="translate(400.5 475.25)"/><g transform="translate(185.827 449.482)scale(2.71)"><linearGradient id="a" x1="0" x2="1" y1="0" y2="0" gradientUnits="objectBoundingBox"><stop offset="0%" stop-color="#ff6cab"/><stop offset="100%" stop-color="#7366ff"/></linearGradient><path fill="url(#a)" d="m269.006 211.505 56.35-36.23-15.8 7.63v.07l-.04-.05-.27.13.02.02Z" transform="translate(-70.2 -71.7)"/></g><g transform="translate(153.063 456.582)scale(2.71)"><linearGradient id="b" x1="0" x2="1" y1="0" y2="0" gradientUnits="objectBoundingBox"><stop offset="0%" stop-color="#ff6cab"/><stop offset="100%" stop-color="#7366ff"/></linearGradient><path fill="url(#b)" d="m306.386 182.855-40.5-3.78-2.09 33.86Z" transform="translate(-58.11 -74.32)"/></g><g transform="translate(50.842 432.382)scale(2.71)"><linearGradient id="c" x1="0" x2="1" y1="0" y2="0" gradientUnits="objectBoundingBox"><stop offset="0%" stop-color="#ff6cab"/><stop offset="100%" stop-color="#7366ff"/></linearGradient><path fill="url(#c)" d="m230.696 160.395 31.21 53.35 2.15-34.91Z" transform="translate(-20.39 -65.39)"/></g><g transform="translate(232.927 354.713)scale(2.71)"><linearGradient id="d" x1="0" x2="1" y1="0" y2="0" gradientUnits="objectBoundingBox"><stop offset="0%" stop-color="#ff6cab"/><stop offset="100%" stop-color="#7366ff"/></linearGradient><path fill="url(#d)" d="m322.196 166.855-14.43-17.88-1.55 5.23 16.7 13.66Z" transform="translate(-87.58 -36.73)"/></g><g transform="translate(236.64 382.924)scale(2.71)"><linearGradient id="e" x1="0" x2="1" y1="0" y2="0" gradientUnits="objectBoundingBox"><stop offset="0%" stop-color="#ff6cab"/><stop offset="100%" stop-color="#7366ff"/></linearGradient><path fill="url(#e)" d="m325.126 172.665-18.38-15.33 2.52 22.98Z" transform="translate(-88.95 -47.14)"/></g><g transform="translate(186.992 374.225)scale(2.71)"><linearGradient id="f" x1="0" x2="1" y1="0" y2="0" gradientUnits="objectBoundingBox"><stop offset="0%" stop-color="#ff6cab"/><stop offset="100%" stop-color="#7366ff"/></linearGradient><path fill="url(#f)" d="m288.496 155.185 18.25 21-2.34-21.14Z" transform="translate(-70.63 -43.93)"/></g><g transform="translate(158.05 382.057)scale(2.71)"><linearGradient id="g" x1="0" x2="1" y1="0" y2="0" gradientUnits="objectBoundingBox"><stop offset="0%" stop-color="#ff6cab"/><stop offset="100%" stop-color="#7366ff"/></linearGradient><path fill="url(#g)" d="m286.746 156.525-20.29 20.14 40.96 3.83Z" transform="translate(-59.95 -46.83)"/></g><g transform="translate(124.473 364.036)scale(2.71)"><linearGradient id="h" x1="0" x2="1" y1="0" y2="0" gradientUnits="objectBoundingBox"><stop offset="0%" stop-color="#ff6cab"/><stop offset="100%" stop-color="#7366ff"/></linearGradient><path fill="url(#h)" d="m285.436 154.875-21.78-5.82 2.3 25.6Z" transform="translate(-47.56 -40.17)"/></g><g transform="translate(55.097 367.532)scale(2.71)"><linearGradient id="i" x1="0" x2="1" y1="0" y2="0" gradientUnits="objectBoundingBox"><stop offset="0%" stop-color="#ff6cab"/><stop offset="100%" stop-color="#7366ff"/></linearGradient><path fill="url(#i)" d="m264.116 176.075-2.31-25.85-28.04 9.1Z" transform="translate(-21.96 -41.47)"/></g><g transform="translate(54.473 329.565)scale(2.71)"><linearGradient id="j" x1="0" x2="1" y1="0" y2="0" gradientUnits="objectBoundingBox"><stop offset="0%" stop-color="#ff6cab"/><stop offset="100%" stop-color="#7366ff"/></linearGradient><path fill="url(#j)" d="m235.906 156.715 25.61-8.74-8.87-6.42Z" transform="translate(-21.73 -27.45)"/></g><g transform="translate(26.208 334.47)scale(2.71)"><linearGradient id="k" x1="0" x2="1" y1="0" y2="0" gradientUnits="objectBoundingBox"><stop offset="0%" stop-color="#ff6cab"/><stop offset="100%" stop-color="#7366ff"/></linearGradient><path fill="url(#k)" d="m228.616 147.865 1.62 11.31 17.71-16.47Z" transform="translate(-11.3 -29.26)"/></g><g transform="translate(44.636 304.768)scale(2.71)"><linearGradient id="l" x1="0" x2="1" y1="0" y2="0" gradientUnits="objectBoundingBox"><stop offset="0%" stop-color="#ff6cab"/><stop offset="100%" stop-color="#7366ff"/></linearGradient><path fill="url(#l)" d="m255.346 136.285-20.52 7.39 18.26-4.88Z" transform="translate(-18.1 -18.29)"/></g><g transform="translate(140.218 316.34)scale(2.71)"><linearGradient id="m" x1="0" x2="1" y1="0" y2="0" gradientUnits="objectBoundingBox"><stop offset="0%" stop-color="#ff6cab"/><stop offset="100%" stop-color="#7366ff"/></linearGradient><path fill="url(#m)" d="m263.736 146.545 23.38 6.34 17.02-.29 1.52-5.16-10.72-5.9-19.78-5.36-15.91-.55-4.19 4.65Z" transform="translate(-53.37 -22.57)"/></g><rect width="544.102" height="144.64" x="343.082" y="257.445" fill="none" rx="0" ry="0" transform="translate(528.45 400.5)"/><g transform="translate(346.24 403.85)"><linearGradient id="n" x1="0" x2="1" y1="0" y2="0" gradientUnits="objectBoundingBox"><stop offset="0%" stop-color="#ff6cab"/><stop offset="100%" stop-color="#7366ff"/></linearGradient><path fill="url(#n)" d="M979.943 785.075q-1.02 0-2.17-.38-3.33-1.02-3.33-5.89 0-3.07 2.3-12.8 1.41-5.76 4.61-14.85 3.2-8.7 3.59-9.08-.52-.39-11.52-.39h-8.58q-19.71.13-21.12 1.15-.64.52-1.47 1.86t-1.86 3.52l-4.22 8.32q-1.28 2.56-2.56 5.57t-2.31 6.59q-.51 3.46-4.6 3.46-2.56 0-2.56-1.67 0-5.37 12.03-26.24-6.53 1.03-5.51 1.79.26.26.26.39 0 .25-.26.25-.51 0-2.17-.89-2.31-1.41-2.31-2.82 0-1.53 3.97-2.43 2.18-.26 4.35-.58 2.18-.32 4.48-.83 6.02-10.24 9.41-16.13 3.39-5.88 4.29-7.55 7.68-14.85 7.68-21.5 0-3.84-2.3-5.38-3.84-2.69-8.96-2.69-8.32 0-28.16 8.07-10.37 4.09-20.48 14.08-10.63 10.62-10.63 18.17 0 3.97 3.46 6.53 4.73 3.33 9.85 3.33 1.41 0 3.2-.26 1.8-.25 2.05-.25.64 0 .64.38 0 .39-.38 1.03-.77 1.53-7.04 1.53-6.02 0-9.6-2.05-7.04-3.96-7.04-11.9 0-4.22 2.56-8.19 10.88-15.75 35.07-26.37 17.54-7.81 32.64-7.81 12.29 0 13.18 7.81.26 1.79-1.98 7.36t-7.1 14.66l-14.98 27.64h2.94q2.05 0 3.4-.12 1.34-.13 2.24-.13h6.65q10.63 0 26.37.38.51-1.28 2.82-6.46 2.3-5.19 6.65-14.4 5.63-12.03 14.72-21.12 10.11-10.11 18.31-10.11 2.43 0 4.73 1.02.64.26 1.22.45.57.19 1.09.45 1.92.76 2.04 1.92.39 2.56-.7 4.92-1.09 2.37-1.98 2.37-.52 0-.52-.77 0-.76.32-2.56.32-1.79.32-2.43 0-1.15-.51-1.66-2.05-2.05-4.99-2.05-5.5 0-12.67 7.04t-13.7 19.2q-5.12 9.47-7.81 15.42-2.68 5.96-3.2 8.52 1.41-.13 2.56-.13h2.18q6.53 0 8.83.89.51.13.51.39 0 1.41-4.35 1.53-2.69.13-5.37.13h-5.25q-1.67 4.1-3.33 8.9t-3.2 10.05q-3.2 11.52-3.2 17.28 0 1.28.51 2.75t.51 1.98q0 1.79-2.56 1.79" transform="translate(-346.24 -403.86)"/></g><path fill="url(#n)" d="M1011.943 770.995q-3.71 0-6.52-1.79-3.72-2.56-3.72-7.42 0-5.25 4.48-12.8 6.02-9.86 17.67-17.28 2.94-1.92 5.89-1.92 3.84 0 5.5 2.43 1.02 1.41 1.02 3.2 0 5.38-8.7 11.78-2.56 1.79-5.44 3.26t-6.21 2.11l-5.5 1.15q-3.07 5.51-3.07 9.22 0 5.12 6.01 5.12 4.74 0 11.52-3.97 9.09-5.25 15.62-14.59 1.02-1.54 1.92-1.54.38 0 .38.52 0 .64-.89 1.92-12.42 18.68-28.04 20.48-.51.12-.96.12Zm0-19.45q3.59 0 9.22-3.2 7.94-4.48 11.14-11.52.89-1.79.89-2.95 0-1.15-.89-1.15-1.67 0-6.79 4.1-3.71 3.2-7.23 6.85-3.52 3.64-6.72 7.74-.13.13.38.13" transform="translate(-.01)"/><path fill="url(#n)" d="M1044.203 770.995q-3.71 0-6.53-1.79-3.71-2.56-3.71-7.42 0-5.25 4.48-12.8 6.02-9.86 17.66-17.28 2.95-1.92 5.89-1.92 3.84 0 5.51 2.43 1.02 1.41 1.02 3.2 0 5.38-8.7 11.78-2.56 1.79-5.44 3.26t-6.21 2.11l-5.51 1.15q-3.07 5.51-3.07 9.22 0 5.12 6.02 5.12 4.73 0 11.52-3.97 9.09-5.25 15.61-14.59 1.03-1.54 1.92-1.54.39 0 .39.52 0 .64-.9 1.92-12.41 18.68-28.03 20.48-.51.12-.96.12Zm0-19.45q3.58 0 9.22-3.2 7.93-4.48 11.13-11.52.9-1.79.9-2.95 0-1.15-.9-1.15-1.66 0-6.78 4.1-3.71 3.2-7.23 6.85-3.52 3.64-6.72 7.74-.13.13.38.13" transform="translate(-.01)"/><path fill="url(#n)" d="M1065.703 771.515q-1.79 0-1.79-1.16 0-.12.26-.89 6.01-11.52 14.21-32.9.89-2.3 3.07-4.03 2.17-1.73 3.71-1.73 1.66 0 1.41 1.79-1.28 2.69-3.07 6.92-1.8 4.22-4.23 9.85 3.59-4.73 10.63-10.62 3.58-2.95 6.2-4.87 2.63-1.92 4.42-2.81 1.79-.9 3.97-.9 2.56 0 4.35 1.28t1.79 2.95q0 1.02-.96 2.24-.96 1.21-1.98 1.21-.51 0-2.11-1.09-1.6-1.08-3.4-1.08-1.92 0-4.48 1.15-16.25 7.29-28.03 32.89-.77 1.8-3.97 1.8m66.69-.13q-2.56 0-4.67-1.67-2.11-1.66-2.5-3.2-.38-1.79 4.74-12.8l-2.94 4.23q-1.92 2.81-3.84 4.99t-3.59 3.84q-4.86 4.61-8.19 3.84-7.68-1.79-7.68-8.7 0-5.51 5.25-14.08 1.66-2.56 4.22-5.12t5.89-5q8.58-6.27 16.51-6.27 4.87 0 9.22 2.56 1.41 1.03 1.41 2.18 0 .89-.52.89-.12 0-.25-.12-2.69-2.95-7.17-2.95-5.25 0-11.39 3.97-6.15 3.97-11.01 10.62-6.91 9.6-6.91 15.62 0 3.46 2.43 4.35 3.07 1.28 13.06-11.39 4.09-4.99 6.84-8.96 2.76-3.97 4.42-6.78.77-1.41 2.82-1.41 3.84 0 3.84 2.3 0 .39-.13.51-11.14 17.67-11.14 23.94 0 1.54.9 1.66 2.69.77 8.96-3.96 7.55-5.64 14.21-14.98 1.4-1.92 2.56-1.92.38 0 .38.26 0 .64-1.15 2.43-2.69 4.22-5.95 7.93-3.27 3.72-7.24 6.92-5.63 4.73-9.21 5.88-.9.39-2.18.39"/><path fill="url(#n)" d="M1248.743 782.515q-2.81 0-6.14-1.15-12.42-4.35-27.01-18.69-4.22-4.09-9.47-11.39-7.68 14.34-9.22 19.84-.76 2.56-3.07 2.56-2.69 0-2.17-2.81.25-1.92 3.32-7.75 3.08-5.82 8.71-15.55-2.82-4.22-4.48-7.94-2.31-4.6-2.31-6.01 0-1.15 1.86-2.69t3.14-1.54q.25 0 .51.26 1.79 3.84 7.29 7.3 9.73-17.28 12.16-28.04-.12-.12-.38-.12l-1.79 1.02q-1.28.77-1.92.77-.51 0-.51-.51 1.4-2.56 3.84-5.38l3.2-3.71q1.02-1.03 2.04-1.86 1.03-.83 2.31-1.21.77-.26 1.15-.26 1.79 0 1.79 2.56 0 2.43-1.79 7.04-3.97 10.11-16.64 31.74 6.53 3.2 11.01 3.33 1.02.13 1.92.13h1.79q13.82 0 25.47-6.27 11.27-5.89 14.85-13.7 1.79-3.97 1.79-7.81 0-9.34-9.09-15.87-9.47-7.04-25.6-7.81-2.17-.12-4.35-.19-2.17-.06-4.35-.06-25.73 0-40.7 7.42-12.68 6.27-12.68 13.7 0 1.79.9 3.07.64 1.54 3.33 2.05.89.25 1.79.32.9.06 1.54.06h1.28q1.4 0 1.4.51 0 1.28-2.56 1.28-12.28 0-14.84-3.07-1.16-1.41-1.16-3.33 0-8.44 15.62-15.61 18.56-8.32 49.92-8.32h5.38q18.17.38 29.82 7.81 11.78 7.55 11.78 17.79 0 4.22-2.18 8.57-5.25 9.99-18.3 16-12.42 5.76-27.14 5.76-9.47 0-18.18-3.2-1.4 2.69-2.43 4.1 3.71 5.5 7.04 9.6t6.15 6.66q18.94 17.53 28.28 17.53 1.92 0 5-.77 1.92-.51 3.71-2.24 1.79-1.72 2.3-1.72 1.54 0 1.54 1.79 0 1.41-5.63 3.58-.9.39-1.73.77t-1.73.64q-2.82 1.02-5.38 1.02m-41.85-40.57q.25-.51.64-1.03.38-.51.64-1.02l-2.82-1.41q.39 1.28 1.54 3.46" transform="translate(0 .01)"/><path fill="url(#n)" d="M1295.213 771.385q-2.56 0-4.67-1.67-2.12-1.66-2.5-3.2-.38-1.79 4.74-12.8l-2.95 4.23q-1.92 2.81-3.84 4.99t-3.58 3.84q-4.87 4.61-8.19 3.84-7.68-1.79-7.68-8.7 0-5.51 5.24-14.08 1.67-2.56 4.23-5.12t5.89-5q8.57-6.27 16.51-6.27 4.86 0 9.21 2.56 1.41 1.03 1.41 2.18 0 .89-.51.89-.13 0-.26-.12-2.68-2.95-7.16-2.95-5.25 0-11.4 3.97-6.14 3.97-11 10.62-6.92 9.6-6.92 15.62 0 3.46 2.44 4.35 3.07 1.28 13.05-11.39 4.1-4.99 6.85-8.96t4.42-6.78q.76-1.41 2.81-1.41 3.84 0 3.84 2.3 0 .39-.13.51-11.13 17.67-11.13 23.94 0 1.54.89 1.66 2.69.77 8.96-3.96 7.56-5.64 14.21-14.98 1.41-1.92 2.56-1.92.39 0 .39.26 0 .64-1.16 2.43-2.68 4.22-5.95 7.93-3.26 3.72-7.23 6.92-5.63 4.73-9.22 5.88-.89.39-2.17.39"/><path fill="url(#n)" d="M1340.013 771.255q-2.82.26-5.38-1.47t-2.56-3.91q0-3.96 7.55-15.23 8.32-12.41 8.32-14.33 0-1.16-1.15-1.28-3.71.25-11.52 7.42-11.13 10.37-20.86 28.16-.26.26-1.41.26-5.5 0-4.99-1.54 1.41-3.71 4.93-11.14 3.52-7.42 9.15-18.68 3.84-7.56 7.81-7.56 1.28 0 1.66.64.26.39-5.38 11.01-2.68 5.12-4.22 8.13t-2.18 3.9q2.18-2.17 5.19-5.37t6.97-7.43q6.28-7.04 13.83-10.49 1.79-.77 4.09-.77 5.25 0 5.25 3.84 0 2.43-2.43 5.76-13.82 19.33-13.82 25.98 0 1.41.89 1.8 2.05.89 10.11-4.23 9.48-6.14 16.13-15.23 1.41-1.92 2.56-1.92.39 0 .39.26 0 .64-1.16 2.43-5.63 8.83-15.61 15.61-8.96 5.89-12.16 5.38"/><path fill="url(#n)" d="M1389.673 771.385q-2.56 0-4.67-1.67-2.11-1.66-2.5-3.2-.38-1.79 4.74-12.8l-2.94 4.23q-1.92 2.81-3.84 4.99t-3.59 3.84q-4.86 4.61-8.19 3.84-7.68-1.79-7.68-8.7 0-5.51 5.25-14.08 1.66-2.56 4.22-5.12t5.89-5q8.58-6.27 16.51-6.27 4.87 0 9.22 2.56 1.41 1.03 1.41 2.18 0 .89-.52.89-.12 0-.25-.12-2.69-2.95-7.17-2.95-5.25 0-11.39 3.97-6.15 3.97-11.01 10.62-6.91 9.6-6.91 15.62 0 3.46 2.43 4.35 3.07 1.28 13.06-11.39 4.09-4.99 6.84-8.96 2.76-3.97 4.42-6.78.77-1.41 2.82-1.41 3.84 0 3.84 2.3 0 .39-.13.51-11.14 17.67-11.14 23.94 0 1.54.9 1.66 2.69.77 8.96-3.96 7.55-5.64 14.21-14.98 1.4-1.92 2.56-1.92.38 0 .38.26 0 .64-1.15 2.43-2.69 4.22-5.95 7.93-3.27 3.72-7.24 6.92-5.63 4.73-9.21 5.88-.9.39-2.18.39"/></g><path fill="transparent" stroke="transparent" stroke-width="1.875" d="M250 481.875h1500v536.25H250z"/></g></svg>