<svg xmlns="http://www.w3.org/2000/svg" xml:space="preserve" width="2000" height="1500" data-id="lg_iUdSKulgN4FsVJzZZQ" data-version="1" viewBox="0 0 2000 1500"><path fill="#fff" stroke="transparent" d="M0 0h2000v1500H0z"/><g data-padding="20"><g transform="translate(-779.153 -583.327)scale(1.75075)"><rect width="560" height="206.79" x="340.38" y="262.306" fill="none" rx="0" ry="0" transform="translate(400.5 475.25)"/><g transform="translate(557.647 545.662)scale(8.01)"><linearGradient id="a" x1="0" x2="1" y1="0" y2="0" gradientUnits="objectBoundingBox"><stop offset="0%" stop-color="#ff6cab"/><stop offset="100%" stop-color="#7366ff"/></linearGradient><path fill="url(#a)" d="m119.47 135.476 56.35-36.23-15.8 7.63v.07l-.04-.05-.27.13.02.02Z" transform="translate(-70.2 -71.7)"/></g><g transform="translate(460.806 566.648)scale(8.01)"><linearGradient id="b" x1="0" x2="1" y1="0" y2="0" gradientUnits="objectBoundingBox"><stop offset="0%" stop-color="#ff6cab"/><stop offset="100%" stop-color="#7366ff"/></linearGradient><path fill="url(#b)" d="m156.85 106.826-40.5-3.78-2.09 33.86Z" transform="translate(-58.11 -74.32)"/></g><g transform="translate(158.669 495.119)scale(8.01)"><linearGradient id="c" x1="0" x2="1" y1="0" y2="0" gradientUnits="objectBoundingBox"><stop offset="0%" stop-color="#ff6cab"/><stop offset="100%" stop-color="#7366ff"/></linearGradient><path fill="url(#c)" d="m81.16 84.366 31.21 53.35 2.15-34.91Z" transform="translate(-20.39 -65.39)"/></g><g transform="translate(696.86 265.552)scale(8.01)"><linearGradient id="d" x1="0" x2="1" y1="0" y2="0" gradientUnits="objectBoundingBox"><stop offset="0%" stop-color="#ff6cab"/><stop offset="100%" stop-color="#7366ff"/></linearGradient><path fill="url(#d)" d="m172.66 90.826-14.43-17.88-1.55 5.23 16.7 13.66Z" transform="translate(-87.58 -36.73)"/></g><g transform="translate(707.835 348.936)scale(8.01)"><linearGradient id="e" x1="0" x2="1" y1="0" y2="0" gradientUnits="objectBoundingBox"><stop offset="0%" stop-color="#ff6cab"/><stop offset="100%" stop-color="#7366ff"/></linearGradient><path fill="url(#e)" d="m175.59 96.636-18.38-15.33 2.52 22.98Z" transform="translate(-88.95 -47.14)"/></g><g transform="translate(561.091 323.224)scale(8.01)"><linearGradient id="f" x1="0" x2="1" y1="0" y2="0" gradientUnits="objectBoundingBox"><stop offset="0%" stop-color="#ff6cab"/><stop offset="100%" stop-color="#7366ff"/></linearGradient><path fill="url(#f)" d="m138.96 79.156 18.25 21-2.34-21.14Z" transform="translate(-70.63 -43.93)"/></g><g transform="translate(475.545 346.373)scale(8.01)"><linearGradient id="g" x1="0" x2="1" y1="0" y2="0" gradientUnits="objectBoundingBox"><stop offset="0%" stop-color="#ff6cab"/><stop offset="100%" stop-color="#7366ff"/></linearGradient><path fill="url(#g)" d="m137.21 80.496-20.29 20.14 40.96 3.83Z" transform="translate(-59.95 -46.83)"/></g><g transform="translate(376.3 293.107)scale(8.01)"><linearGradient id="h" x1="0" x2="1" y1="0" y2="0" gradientUnits="objectBoundingBox"><stop offset="0%" stop-color="#ff6cab"/><stop offset="100%" stop-color="#7366ff"/></linearGradient><path fill="url(#h)" d="m135.9 78.846-21.78-5.82 2.3 25.6Z" transform="translate(-47.56 -40.17)"/></g><g transform="translate(171.245 303.44)scale(8.01)"><linearGradient id="i" x1="0" x2="1" y1="0" y2="0" gradientUnits="objectBoundingBox"><stop offset="0%" stop-color="#ff6cab"/><stop offset="100%" stop-color="#7366ff"/></linearGradient><path fill="url(#i)" d="m114.58 100.046-2.31-25.85-28.04 9.1Z" transform="translate(-21.96 -41.47)"/></g><g transform="translate(169.402 191.22)scale(8.01)"><linearGradient id="j" x1="0" x2="1" y1="0" y2="0" gradientUnits="objectBoundingBox"><stop offset="0%" stop-color="#ff6cab"/><stop offset="100%" stop-color="#7366ff"/></linearGradient><path fill="url(#j)" d="m86.37 80.686 25.61-8.74-8.87-6.42Z" transform="translate(-21.73 -27.45)"/></g><g transform="translate(85.858 205.718)scale(8.01)"><linearGradient id="k" x1="0" x2="1" y1="0" y2="0" gradientUnits="objectBoundingBox"><stop offset="0%" stop-color="#ff6cab"/><stop offset="100%" stop-color="#7366ff"/></linearGradient><path fill="url(#k)" d="m79.08 71.836 1.62 11.31 17.71-16.47Z" transform="translate(-11.3 -29.26)"/></g><g transform="translate(140.326 117.928)scale(8.01)"><linearGradient id="l" x1="0" x2="1" y1="0" y2="0" gradientUnits="objectBoundingBox"><stop offset="0%" stop-color="#ff6cab"/><stop offset="100%" stop-color="#7366ff"/></linearGradient><path fill="url(#l)" d="m105.81 60.256-20.52 7.39 18.26-4.88Z" transform="translate(-18.1 -18.29)"/></g><g transform="translate(422.839 152.13)scale(8.01)"><linearGradient id="m" x1="0" x2="1" y1="0" y2="0" gradientUnits="objectBoundingBox"><stop offset="0%" stop-color="#ff6cab"/><stop offset="100%" stop-color="#7366ff"/></linearGradient><path fill="url(#m)" d="m114.2 70.516 23.38 6.34 17.02-.29 1.52-5.16-10.72-5.9-19.78-5.36-15.91-.55-4.19 4.65Z" transform="translate(-53.37 -22.57)"/></g></g><path fill="transparent" stroke="transparent" stroke-width="1.797" d="M303.614 187.5h1392.772v1125H303.614z"/></g></svg>